<svg xmlns="http://www.w3.org/2000/svg" xmlns:xlink="http://www.w3.org/1999/xlink" width="300px" height="70px" viewBox="0 0 129 30" version="1.1">        <title>Logo-Pos</title>    <desc>Created with Sketch.</desc>    <g id="UX" stroke="none" stroke-width="1" fill="none" fill-rule="evenodd">        <g id="Desktop-993-1259px-/-MENU-Copy" transform="translate(-44.000000, -13.000000)" fill="#282828">            <g id="Logo-Pos" transform="translate(44.000000, 13.000000)">                <g id="Group-15">                    <path d="M20.916825,17.325675 C20.916825,20.882925 19.992825,23.351925 17.916825,25.332675 C15.819825,27.335175 13.939575,27.848925 11.402325,28.061925 C11.401575,28.061175 11.086575,28.063425 11.086575,28.063425 C8.598825,27.851925 6.728325,27.338175 4.626825,25.332675 C2.552325,23.351925 1.627575,20.882925 1.627575,17.325675 C1.627575,15.551175 1.934325,13.671675 2.539575,11.741925 C3.002325,10.266675 3.294075,9.600675 3.671325,8.886675 C4.085325,8.104425 4.536825,7.889175 5.871825,7.839675 C5.871825,7.839675 16.654575,7.840425 16.675575,7.840425 C18.007575,7.889925 18.460575,8.105175 18.872325,8.886675 C19.250325,9.600675 19.542075,10.266675 20.004075,11.741925 C20.609325,13.671675 20.916825,15.551175 20.916825,17.325675 M21.451575,11.177175 C20.943075,9.658425 20.238075,8.146425 19.297575,6.549675 C18.236325,4.748175 16.648575,2.968425 15.795825,2.067675 C15.335325,1.579425 14.190825,0.333675 13.587825,0.159675 C13.179075,0.043425 12.799575,0.098925 12.519825,0.316425 C12.281325,0.501675 12.144825,0.785925 12.153075,1.078425 C12.161325,1.360425 12.303075,1.635675 12.542325,1.833675 C12.771075,2.023425 13.053075,2.107425 13.314075,2.065425 L13.619325,1.961925 C13.619325,1.961925 13.677075,1.934925 13.682325,1.932675 C13.686075,1.933425 13.767825,1.938675 14.014575,2.123175 C14.679075,2.621175 16.249575,4.638675 16.956825,5.512425 C17.258325,5.921925 17.296575,6.122175 17.296575,6.197925 C17.296575,6.224175 17.292075,6.235425 17.292075,6.236175 C17.274825,6.271425 17.115075,6.371175 16.632825,6.371175 L5.910825,6.371175 C5.429325,6.371175 5.270325,6.271425 5.252325,6.236175 C5.252325,6.235425 5.247825,6.224175 5.247825,6.199425 C5.247825,6.123675 5.286825,5.920425 5.597325,5.498925 C6.294075,4.661175 7.817325,2.622675 8.481825,2.123175 C8.727825,1.938675 8.810325,1.933425 8.815575,1.932675 C8.819325,1.934925 8.878575,1.961925 8.878575,1.961925 L9.182325,2.065425 C9.429825,2.105175 9.696825,2.027175 9.916575,1.850175 C10.155825,1.657425 10.309575,1.373925 10.326825,1.091175 C10.344825,0.792675 10.216575,0.502425 9.984075,0.316425 C9.825075,0.188925 9.474075,-0.000825 8.909325,0.159675 C8.392575,0.308175 7.348575,1.379925 6.414825,2.366925 C5.562825,3.266925 4.308075,4.748175 3.246075,6.549675 C2.306325,8.146425 1.601325,9.658425 1.092825,11.177175 C0.285075,13.585425 7.5e-05,16.757925 7.5e-05,17.351925 C7.5e-05,21.078675 1.210575,24.160425 3.597075,26.510175 C5.487825,28.405425 8.297325,29.552925 11.110575,29.574675 L11.431575,29.574675 C14.247075,29.552925 17.057325,28.405425 18.949575,26.507175 C21.333825,24.160425 22.544325,21.078675 22.544325,17.351925 C22.544325,16.757925 22.259325,13.585425 21.451575,11.177175" id="Fill-1"/>                    <path d="M42.045675,12.15915 C41.011425,10.9779 39.779925,10.5099 38.155425,10.5099 C36.825675,10.5099 35.915175,10.9779 35.915175,11.83815 C35.915175,14.84265 46.133175,12.18315 46.133175,19.7679 C46.133175,22.84515 43.670925,25.97265 38.228925,25.97265 C34.904925,25.97265 31.976175,25.18365 30.005925,22.35315 L33.206175,19.86465 C34.363425,21.29415 35.988675,22.1319 37.884675,22.1319 C39.977925,22.1319 40.814175,21.3189 40.814175,20.5059 C40.814175,17.67465 30.743925,19.8414 30.743925,12.79965 C30.743925,9.1554 33.772425,6.6684 38.228925,6.6684 C40.838925,6.6684 43.498425,7.4559 45.148425,9.59865 L42.045675,12.15915 Z" id="Fill-3"/>                    <polygon id="Fill-5" points="47.856 7.013175 61.86525 7.013175 61.86525 10.853925 53.17425 10.853925 53.17425 14.227425 58.7385 14.227425 58.7385 18.068925 53.17425 18.068925 53.17425 21.638925 62.136 21.638925 62.136 25.627425 47.856 25.627425"/>                    <polygon id="Fill-7" points="63.810375 7.013175 69.129375 7.013175 69.129375 21.638925 76.909875 21.638925 76.909875 25.627425 63.810375 25.627425"/>                    <path d="M83.702175,22.081275 L85.104675,22.081275 C87.616425,22.081275 89.759175,20.531025 89.759175,16.172025 C89.759175,13.316025 88.650675,10.559025 85.375425,10.559025 L83.702175,10.559025 L83.702175,22.081275 Z M78.383925,7.013025 L85.892925,7.013025 C92.098425,7.013025 95.372925,10.952775 95.372925,16.196775 C95.372925,20.357775 93.525675,25.628025 85.425675,25.628025 L78.383925,25.628025 L78.383925,7.013025 Z" id="Fill-9"/>                    <path d="M97.290075,7.013175 L111.300825,7.013175 L111.300825,10.853925 L102.607575,10.853925 L102.607575,14.227425 L108.172575,14.227425 L108.172575,18.068925 L102.607575,18.068925 L102.607575,21.638925 L111.570075,21.638925 L111.570075,25.627425 L97.290075,25.627425 L97.290075,7.013175 Z M107.835075,2.208675 L111.650325,2.208675 L108.006825,5.803425 L105.545325,5.803425 L107.835075,2.208675 Z" id="Fill-11"/>                    <polygon id="Fill-13" points="113.2452 7.013175 118.19445 7.013175 124.8177 16.886175 124.86645 16.886175 124.86645 7.013175 128.95395 7.013175 128.95395 25.627425 124.96545 25.627425 117.3822 15.089175 117.33195 15.089175 117.33195 25.627425 113.2452 25.627425"/>                </g>            </g>        </g>    </g></svg>