<svg width="20" height="20" viewBox="0 0 20 20" fill="none" xmlns="http://www.w3.org/2000/svg">
<g clip-path="url(#clip0_1403_6181)">
<path d="M2.4165 8.33366C2.4165 7.91945 2.08072 7.58366 1.6665 7.58366C1.25229 7.58366 0.916504 7.91945 0.916504 8.33366H2.4165ZM17.5832 11.667C17.5832 12.0812 17.919 12.417 18.3332 12.417C18.7474 12.417 19.0832 12.0812 19.0832 11.667H17.5832ZM12.8273 3.37836L12.3256 3.93584L12.8273 3.37836ZM16.1263 6.34745L15.6245 6.90492V6.90492L16.1263 6.34745ZM18.0448 8.46207L17.3597 8.7672L17.3597 8.7672L18.0448 8.46207ZM2.64281 17.3573L3.17314 16.827L3.17314 16.827L2.64281 17.3573ZM17.3569 17.3573L16.8265 16.827L16.8265 16.827L17.3569 17.3573ZM1.00468 4.92691C0.964136 5.33913 1.26544 5.70618 1.67766 5.74672C2.08989 5.78727 2.45693 5.48597 2.49748 5.07374L1.00468 4.92691ZM18.995 15.0737C19.0355 14.6615 18.7342 14.2945 18.322 14.2539C17.9098 14.2134 17.5427 14.5147 17.5022 14.9269L18.995 15.0737ZM11.6665 17.5837H8.33317V19.0837H11.6665V17.5837ZM2.4165 11.667V8.33366H0.916504V11.667H2.4165ZM17.5832 11.3027V11.667H19.0832V11.3027H17.5832ZM12.3256 3.93584L15.6245 6.90492L16.628 5.78998L13.329 2.82089L12.3256 3.93584ZM19.0832 11.3027C19.0832 9.90682 19.0983 8.98402 18.73 8.15694L17.3597 8.7672C17.568 9.23495 17.5832 9.77432 17.5832 11.3027H19.0832ZM15.6245 6.90492C16.7606 7.92738 17.1514 8.29945 17.3597 8.7672L18.73 8.15694C18.3616 7.32987 17.6656 6.7238 16.628 5.78998L15.6245 6.90492ZM8.358 2.41699C9.68563 2.41699 10.1555 2.42857 10.5722 2.58847L11.1096 1.18804C10.373 0.905413 9.57204 0.916992 8.358 0.916992V2.41699ZM13.329 2.82089C12.431 2.01268 11.846 1.47063 11.1096 1.18804L10.5722 2.58847C10.989 2.74842 11.3438 3.05226 12.3256 3.93584L13.329 2.82089ZM8.33317 17.5837C6.74062 17.5837 5.62166 17.5821 4.77553 17.4683C3.95099 17.3575 3.49872 17.1526 3.17314 16.827L2.11248 17.8877C2.76322 18.5384 3.58478 18.8217 4.57566 18.9549C5.54497 19.0853 6.78302 19.0837 8.33317 19.0837V17.5837ZM0.916504 11.667C0.916504 13.2171 0.914911 14.4552 1.04523 15.4245C1.17845 16.4154 1.46175 17.2369 2.11248 17.8877L3.17314 16.827C2.84757 16.5014 2.64271 16.0492 2.53185 15.2246C2.4181 14.3785 2.4165 13.2595 2.4165 11.667H0.916504ZM11.6665 19.0837C13.2167 19.0837 14.4547 19.0853 15.424 18.9549C16.4149 18.8217 17.2365 18.5384 17.8872 17.8877L16.8265 16.827C16.501 17.1526 16.0487 17.3575 15.2241 17.4683C14.378 17.5821 13.2591 17.5837 11.6665 17.5837V19.0837ZM8.358 0.916992C6.79951 0.916992 5.55549 0.915413 4.58231 1.04566C3.58813 1.17872 2.7638 1.46166 2.11248 2.11297L3.17314 3.17363C3.49814 2.84864 3.95178 2.64342 4.78129 2.5324C5.63182 2.41857 6.75724 2.41699 8.358 2.41699V0.916992ZM2.49748 5.07374C2.59758 4.05606 2.81056 3.53622 3.17314 3.17363L2.11248 2.11297C1.38644 2.83902 1.11772 3.77773 1.00468 4.92691L2.49748 5.07374ZM17.5022 14.9269C17.4021 15.9446 17.1891 16.4644 16.8265 16.827L17.8872 17.8877C18.6132 17.1616 18.882 16.2229 18.995 15.0737L17.5022 14.9269Z" fill="#ABAAA6"/>
<path d="M10.8335 2.08301V4.16634C10.8335 6.13053 10.8335 7.11262 11.4437 7.72281C12.0539 8.33301 13.036 8.33301 15.0002 8.33301H18.3335" stroke="#ABAAA6" stroke-width="1.5"/>
</g>
<defs>
<clipPath id="clip0_1403_6181">
<rect width="20" height="20" fill="white"/>
</clipPath>
</defs>
</svg>
