<svg width="25" height="20" viewBox="0 0 25 20" fill="none" xmlns="http://www.w3.org/2000/svg">
<g clip-path="url(#clip0_37_1255)">
<mask id="path-1-inside-1_37_1255" fill="white">
<path d="M7.10234 0.723374C7.48853 0.673915 7.81438 0.927393 8.20058 0.79138C8.36954 0.729556 8.55057 0.723374 8.69539 0.593544C8.76177 0.53172 8.85831 0.457532 8.93676 0.457532C9.75139 0.494626 10.4453 -0.111247 11.272 0.0124004C11.2962 0.0124004 11.3324 3.55905e-05 11.3505 0.0124004C11.9237 0.309155 12.6177 0.191689 13.1728 0.624456C13.4745 0.859386 13.903 0.933575 14.2771 1.06341C14.3797 1.1005 14.5185 1.10668 14.5547 1.19942C14.796 1.77438 15.3633 1.78056 15.8158 1.98458C16.0391 2.0835 16.19 2.2566 16.202 2.46681C16.2262 2.81302 16.4434 2.98613 16.6606 3.16541C16.902 3.36943 17.1253 3.54872 17.0951 3.93203C17.077 4.13605 17.7106 4.42662 17.8977 4.35243C18.3804 4.1546 18.8088 3.91348 19.1709 3.50545C19.3519 3.30143 19.6778 3.19014 19.9312 3.0294C20.1665 2.88103 20.4019 2.73883 20.6131 2.54099C20.9027 2.26279 21.1984 2.00313 21.5967 1.8733C21.8561 1.78674 22.0432 1.54563 22.2182 1.31688C22.6406 0.760468 23.1113 0.284425 23.8837 0.315337C24.3061 0.333884 24.656 0.488444 24.9034 0.847022C25.0362 1.03868 24.994 1.23651 24.9578 1.46526C24.8371 2.25042 24.3242 2.73883 23.7087 3.03558C22.9001 3.42507 22.3087 4.12368 21.4941 4.49463C21.1381 4.65537 20.7277 4.6801 20.4019 4.92739C20.3355 4.97685 20.2148 4.97685 20.1786 5.07577C19.9372 5.71255 19.3519 5.9784 18.8873 6.38643C18.1089 7.07886 17.1132 7.46217 16.4132 8.20405C15.846 8.80375 15.0978 9.05104 14.4762 9.53327C14.1564 9.78674 13.7823 9.88566 13.6073 10.3741C13.4323 10.8625 12.8892 11.0294 12.3884 11.0974C12.1349 11.1345 11.9418 11.184 11.8151 11.4436C11.7306 11.6167 11.5556 11.7466 11.4108 11.8888C11.1996 12.0866 11.0005 12.3153 10.8014 12.4946C10.4695 12.7852 10.1134 13.1747 9.66087 13.2241C9.12986 13.2798 8.56264 13.2056 8.10403 12.8656C7.71784 12.5812 7.6756 12.0866 7.59715 11.6662C7.53077 11.3076 7.47043 10.8996 7.60922 10.5101C7.65146 10.3926 7.56095 10.2875 7.4644 10.1948C7.08424 9.84857 6.95148 9.40962 6.93338 8.89648C6.91528 8.45135 6.86097 7.99385 6.71615 7.57963C6.58339 7.19633 6.54719 6.81302 6.50495 6.42353C6.4446 5.91039 7.12044 5.39107 7.68766 5.50854C8.01955 5.57654 8.35747 5.70019 8.50229 6.03404C8.7678 6.65228 9.16606 7.20251 9.38933 7.83929C9.49191 8.12368 9.48588 8.42662 9.52812 8.71719C9.6126 9.30452 9.98069 9.78056 10.0833 10.3926C10.3971 10.1391 10.8014 10.0031 10.9462 9.57036C10.9703 9.50854 11.0005 9.42198 11.0488 9.40344C11.6703 9.11905 12.0082 8.39571 12.7444 8.28442C13.0521 8.23497 13.2151 7.99385 13.4142 7.73419C13.734 7.32616 13.9814 6.77592 14.621 6.69555C14.8926 6.65846 15.0797 6.38025 15.2909 6.20096C15.4296 6.07732 15.5443 5.93512 15.7193 5.84857C15.9486 5.7311 15.9727 5.38489 15.7736 5.21796C15.5805 5.05722 15.4779 4.86557 15.3814 4.63064C15.2426 4.29679 14.8805 4.13605 14.5969 3.93821C14.3736 3.78365 14.2107 3.63528 14.1443 3.35707C14.09 3.12214 14.0116 2.87484 13.6797 2.91812C13.6194 2.9243 13.5288 2.89957 13.4987 2.8563C13.2875 2.55954 12.9616 2.59045 12.672 2.49154C12.2073 2.33698 11.7849 2.55336 11.3384 2.49772C10.8557 2.44208 10.3669 2.40498 9.88414 2.45444C9.51605 2.49153 9.12986 2.66464 8.79797 2.47299C8.26696 2.16387 7.74197 2.42971 7.21699 2.38643C6.90924 2.3617 6.72218 2.72647 6.50495 2.9243C6.11272 3.29524 5.59981 3.4498 5.21361 3.81456C5.18344 3.83929 5.11103 3.84548 5.11103 3.86402C5.06276 4.3277 4.58605 4.48844 4.42312 4.85939C4.35071 5.03249 4.28433 5.16232 4.10331 5.23651C3.91021 5.31688 3.89211 5.48381 3.91624 5.68164C3.96452 6.17623 3.74125 6.55336 3.31885 6.73265C2.94473 6.89339 2.7818 7.20251 2.70939 7.53018C2.61284 7.94439 2.51629 8.37716 2.52836 8.81611C2.52836 8.93358 2.52836 9.08195 2.46802 9.17469C2.19648 9.57036 2.3413 9.97221 2.41974 10.3741C2.43181 10.4297 2.46198 10.4854 2.44992 10.5348C2.29906 11.1654 2.75766 11.6909 2.7637 12.2659C2.76973 12.983 3.25851 13.4343 3.45764 14.0279C3.53005 14.2442 3.63263 14.4112 3.8559 14.5039C3.99469 14.5595 4.13348 14.6708 4.14555 14.8254C4.19382 15.5054 4.86363 15.6662 5.16534 16.1299C5.19551 16.1793 5.3162 16.1855 5.38861 16.1731C5.91962 16.099 6.28168 16.3833 6.58943 16.7605C6.70408 16.8965 6.80666 16.9769 6.99372 16.9521C7.53681 16.8718 8.00145 16.9954 8.35144 17.4714C8.46609 17.626 8.63505 17.7064 8.82814 17.5271C8.92469 17.4405 9.06951 17.3416 9.17813 17.354C9.79966 17.422 10.4152 17.1809 11.0307 17.354C11.5436 17.5024 12.0384 17.5271 12.503 17.2118C12.5151 17.2056 12.5272 17.1932 12.5392 17.1932C13.2754 17.4158 13.7642 16.6739 14.44 16.6677C14.5426 16.6677 14.615 16.6121 14.6693 16.5317C14.959 16.1175 15.3874 15.932 15.846 15.8146C16.0753 15.7589 16.202 15.6353 16.2201 15.4065C16.2443 15.0974 16.4555 14.8625 16.5037 14.5595C16.552 14.2752 16.6063 14.0093 16.5339 13.7187C16.4796 13.5024 16.5641 13.3045 16.6486 13.0943C16.8417 12.6121 17.1253 12.167 17.1615 11.6291C17.1615 11.5487 17.1615 11.4436 17.2037 11.388C17.6623 10.8192 17.2942 10.2566 17.2339 9.67546C17.1796 9.16851 17.2882 8.643 17.4873 8.19169C17.5537 8.03713 17.8313 7.78365 18.127 7.77747C18.4528 7.77747 18.6881 7.96912 18.833 8.23497C18.9657 8.47608 19.1287 8.68628 19.2674 8.90885C19.6235 9.47144 19.5692 10.1144 19.4062 10.7203C19.2916 11.1345 19.4605 11.4869 19.4967 11.864C19.5088 11.9939 19.5329 12.1546 19.5148 12.2597C19.4545 12.6925 19.5269 13.1067 19.545 13.5333C19.545 13.626 19.539 13.7558 19.4786 13.8053C19.0019 14.2381 19.0985 14.949 18.7425 15.4189C18.4106 15.8578 18.1752 16.3772 17.7106 16.7357C17.3485 17.0139 17.0589 17.3911 16.7813 17.7558C16.4917 18.1391 16.1598 18.3803 15.6831 18.405C15.3271 18.4235 15.0495 18.5595 14.79 18.8501C14.3374 19.3509 13.7038 19.4807 13.0582 19.4993C12.7746 19.5054 12.4909 19.5673 12.2134 19.6044C11.8513 19.6538 11.447 19.6476 11.1091 19.8702C10.9281 19.9877 10.6988 20.0062 10.4876 19.9629C10.0591 19.8764 9.6307 19.7898 9.18417 19.8207C8.94883 19.8331 8.76177 19.6909 8.58677 19.5302C8.35143 19.32 8.14627 19.1407 7.76008 19.3385C7.18079 19.6353 6.56529 19.4251 6.12479 18.8996C5.99807 18.745 5.88342 18.6956 5.67825 18.7388C5.05069 18.8748 4.5076 18.5657 4.29037 17.9475C4.20589 17.7187 4.10331 17.5889 3.8378 17.5209C3.42143 17.4096 3.05334 17.1871 2.87835 16.7172C2.7999 16.5132 2.66715 16.3401 2.39561 16.3092C2.05769 16.2782 1.83442 16.0619 1.77408 15.7095C1.74391 15.5302 1.66546 15.4313 1.52064 15.3262C1.2853 15.1592 1.18875 14.881 1.11634 14.6028C1.02583 14.2504 0.923244 13.9042 0.651702 13.6445C0.199131 13.2056 0.144823 12.6306 0.132754 12.0371C0.12672 11.5858 0.16896 11.1345 0.0120686 10.6894C-0.0844797 10.4235 0.12672 10.1453 0.16896 9.86093C0.223268 9.50854 0.392228 9.18705 0.313782 8.80375C0.271542 8.59973 0.561188 8.51317 0.609462 8.29679C0.74825 7.67237 0.911175 7.05413 1.27927 6.51626C1.38788 6.35552 1.36978 6.17623 1.31547 6.00313C1.18272 5.56418 1.33961 5.2056 1.67149 4.9583C2.09389 4.63682 2.35337 4.17314 2.70939 3.81456C3.08955 3.42507 3.3973 2.9243 3.94038 2.69555C4.38692 2.51008 4.74294 2.19478 5.08086 1.81766C5.51533 1.34161 6.08255 0.995399 6.73425 0.877934C6.84287 0.859386 6.96355 0.933575 7.0782 0.94594C7.13251 0.94594 7.22906 0.970669 7.22303 0.865569C7.22303 0.797563 7.08424 0.865569 7.09027 0.723374H7.10234Z"/>
</mask>
<path d="M7.10234 0.723374C7.48853 0.673915 7.81438 0.927393 8.20058 0.79138C8.36954 0.729556 8.55057 0.723374 8.69539 0.593544C8.76177 0.53172 8.85831 0.457532 8.93676 0.457532C9.75139 0.494626 10.4453 -0.111247 11.272 0.0124004C11.2962 0.0124004 11.3324 3.55905e-05 11.3505 0.0124004C11.9237 0.309155 12.6177 0.191689 13.1728 0.624456C13.4745 0.859386 13.903 0.933575 14.2771 1.06341C14.3797 1.1005 14.5185 1.10668 14.5547 1.19942C14.796 1.77438 15.3633 1.78056 15.8158 1.98458C16.0391 2.0835 16.19 2.2566 16.202 2.46681C16.2262 2.81302 16.4434 2.98613 16.6606 3.16541C16.902 3.36943 17.1253 3.54872 17.0951 3.93203C17.077 4.13605 17.7106 4.42662 17.8977 4.35243C18.3804 4.1546 18.8088 3.91348 19.1709 3.50545C19.3519 3.30143 19.6778 3.19014 19.9312 3.0294C20.1665 2.88103 20.4019 2.73883 20.6131 2.54099C20.9027 2.26279 21.1984 2.00313 21.5967 1.8733C21.8561 1.78674 22.0432 1.54563 22.2182 1.31688C22.6406 0.760468 23.1113 0.284425 23.8837 0.315337C24.3061 0.333884 24.656 0.488444 24.9034 0.847022C25.0362 1.03868 24.994 1.23651 24.9578 1.46526C24.8371 2.25042 24.3242 2.73883 23.7087 3.03558C22.9001 3.42507 22.3087 4.12368 21.4941 4.49463C21.1381 4.65537 20.7277 4.6801 20.4019 4.92739C20.3355 4.97685 20.2148 4.97685 20.1786 5.07577C19.9372 5.71255 19.3519 5.9784 18.8873 6.38643C18.1089 7.07886 17.1132 7.46217 16.4132 8.20405C15.846 8.80375 15.0978 9.05104 14.4762 9.53327C14.1564 9.78674 13.7823 9.88566 13.6073 10.3741C13.4323 10.8625 12.8892 11.0294 12.3884 11.0974C12.1349 11.1345 11.9418 11.184 11.8151 11.4436C11.7306 11.6167 11.5556 11.7466 11.4108 11.8888C11.1996 12.0866 11.0005 12.3153 10.8014 12.4946C10.4695 12.7852 10.1134 13.1747 9.66087 13.2241C9.12986 13.2798 8.56264 13.2056 8.10403 12.8656C7.71784 12.5812 7.6756 12.0866 7.59715 11.6662C7.53077 11.3076 7.47043 10.8996 7.60922 10.5101C7.65146 10.3926 7.56095 10.2875 7.4644 10.1948C7.08424 9.84857 6.95148 9.40962 6.93338 8.89648C6.91528 8.45135 6.86097 7.99385 6.71615 7.57963C6.58339 7.19633 6.54719 6.81302 6.50495 6.42353C6.4446 5.91039 7.12044 5.39107 7.68766 5.50854C8.01955 5.57654 8.35747 5.70019 8.50229 6.03404C8.7678 6.65228 9.16606 7.20251 9.38933 7.83929C9.49191 8.12368 9.48588 8.42662 9.52812 8.71719C9.6126 9.30452 9.98069 9.78056 10.0833 10.3926C10.3971 10.1391 10.8014 10.0031 10.9462 9.57036C10.9703 9.50854 11.0005 9.42198 11.0488 9.40344C11.6703 9.11905 12.0082 8.39571 12.7444 8.28442C13.0521 8.23497 13.2151 7.99385 13.4142 7.73419C13.734 7.32616 13.9814 6.77592 14.621 6.69555C14.8926 6.65846 15.0797 6.38025 15.2909 6.20096C15.4296 6.07732 15.5443 5.93512 15.7193 5.84857C15.9486 5.7311 15.9727 5.38489 15.7736 5.21796C15.5805 5.05722 15.4779 4.86557 15.3814 4.63064C15.2426 4.29679 14.8805 4.13605 14.5969 3.93821C14.3736 3.78365 14.2107 3.63528 14.1443 3.35707C14.09 3.12214 14.0116 2.87484 13.6797 2.91812C13.6194 2.9243 13.5288 2.89957 13.4987 2.8563C13.2875 2.55954 12.9616 2.59045 12.672 2.49154C12.2073 2.33698 11.7849 2.55336 11.3384 2.49772C10.8557 2.44208 10.3669 2.40498 9.88414 2.45444C9.51605 2.49153 9.12986 2.66464 8.79797 2.47299C8.26696 2.16387 7.74197 2.42971 7.21699 2.38643C6.90924 2.3617 6.72218 2.72647 6.50495 2.9243C6.11272 3.29524 5.59981 3.4498 5.21361 3.81456C5.18344 3.83929 5.11103 3.84548 5.11103 3.86402C5.06276 4.3277 4.58605 4.48844 4.42312 4.85939C4.35071 5.03249 4.28433 5.16232 4.10331 5.23651C3.91021 5.31688 3.89211 5.48381 3.91624 5.68164C3.96452 6.17623 3.74125 6.55336 3.31885 6.73265C2.94473 6.89339 2.7818 7.20251 2.70939 7.53018C2.61284 7.94439 2.51629 8.37716 2.52836 8.81611C2.52836 8.93358 2.52836 9.08195 2.46802 9.17469C2.19648 9.57036 2.3413 9.97221 2.41974 10.3741C2.43181 10.4297 2.46198 10.4854 2.44992 10.5348C2.29906 11.1654 2.75766 11.6909 2.7637 12.2659C2.76973 12.983 3.25851 13.4343 3.45764 14.0279C3.53005 14.2442 3.63263 14.4112 3.8559 14.5039C3.99469 14.5595 4.13348 14.6708 4.14555 14.8254C4.19382 15.5054 4.86363 15.6662 5.16534 16.1299C5.19551 16.1793 5.3162 16.1855 5.38861 16.1731C5.91962 16.099 6.28168 16.3833 6.58943 16.7605C6.70408 16.8965 6.80666 16.9769 6.99372 16.9521C7.53681 16.8718 8.00145 16.9954 8.35144 17.4714C8.46609 17.626 8.63505 17.7064 8.82814 17.5271C8.92469 17.4405 9.06951 17.3416 9.17813 17.354C9.79966 17.422 10.4152 17.1809 11.0307 17.354C11.5436 17.5024 12.0384 17.5271 12.503 17.2118C12.5151 17.2056 12.5272 17.1932 12.5392 17.1932C13.2754 17.4158 13.7642 16.6739 14.44 16.6677C14.5426 16.6677 14.615 16.6121 14.6693 16.5317C14.959 16.1175 15.3874 15.932 15.846 15.8146C16.0753 15.7589 16.202 15.6353 16.2201 15.4065C16.2443 15.0974 16.4555 14.8625 16.5037 14.5595C16.552 14.2752 16.6063 14.0093 16.5339 13.7187C16.4796 13.5024 16.5641 13.3045 16.6486 13.0943C16.8417 12.6121 17.1253 12.167 17.1615 11.6291C17.1615 11.5487 17.1615 11.4436 17.2037 11.388C17.6623 10.8192 17.2942 10.2566 17.2339 9.67546C17.1796 9.16851 17.2882 8.643 17.4873 8.19169C17.5537 8.03713 17.8313 7.78365 18.127 7.77747C18.4528 7.77747 18.6881 7.96912 18.833 8.23497C18.9657 8.47608 19.1287 8.68628 19.2674 8.90885C19.6235 9.47144 19.5692 10.1144 19.4062 10.7203C19.2916 11.1345 19.4605 11.4869 19.4967 11.864C19.5088 11.9939 19.5329 12.1546 19.5148 12.2597C19.4545 12.6925 19.5269 13.1067 19.545 13.5333C19.545 13.626 19.539 13.7558 19.4786 13.8053C19.0019 14.2381 19.0985 14.949 18.7425 15.4189C18.4106 15.8578 18.1752 16.3772 17.7106 16.7357C17.3485 17.0139 17.0589 17.3911 16.7813 17.7558C16.4917 18.1391 16.1598 18.3803 15.6831 18.405C15.3271 18.4235 15.0495 18.5595 14.79 18.8501C14.3374 19.3509 13.7038 19.4807 13.0582 19.4993C12.7746 19.5054 12.4909 19.5673 12.2134 19.6044C11.8513 19.6538 11.447 19.6476 11.1091 19.8702C10.9281 19.9877 10.6988 20.0062 10.4876 19.9629C10.0591 19.8764 9.6307 19.7898 9.18417 19.8207C8.94883 19.8331 8.76177 19.6909 8.58677 19.5302C8.35143 19.32 8.14627 19.1407 7.76008 19.3385C7.18079 19.6353 6.56529 19.4251 6.12479 18.8996C5.99807 18.745 5.88342 18.6956 5.67825 18.7388C5.05069 18.8748 4.5076 18.5657 4.29037 17.9475C4.20589 17.7187 4.10331 17.5889 3.8378 17.5209C3.42143 17.4096 3.05334 17.1871 2.87835 16.7172C2.7999 16.5132 2.66715 16.3401 2.39561 16.3092C2.05769 16.2782 1.83442 16.0619 1.77408 15.7095C1.74391 15.5302 1.66546 15.4313 1.52064 15.3262C1.2853 15.1592 1.18875 14.881 1.11634 14.6028C1.02583 14.2504 0.923244 13.9042 0.651702 13.6445C0.199131 13.2056 0.144823 12.6306 0.132754 12.0371C0.12672 11.5858 0.16896 11.1345 0.0120686 10.6894C-0.0844797 10.4235 0.12672 10.1453 0.16896 9.86093C0.223268 9.50854 0.392228 9.18705 0.313782 8.80375C0.271542 8.59973 0.561188 8.51317 0.609462 8.29679C0.74825 7.67237 0.911175 7.05413 1.27927 6.51626C1.38788 6.35552 1.36978 6.17623 1.31547 6.00313C1.18272 5.56418 1.33961 5.2056 1.67149 4.9583C2.09389 4.63682 2.35337 4.17314 2.70939 3.81456C3.08955 3.42507 3.3973 2.9243 3.94038 2.69555C4.38692 2.51008 4.74294 2.19478 5.08086 1.81766C5.51533 1.34161 6.08255 0.995399 6.73425 0.877934C6.84287 0.859386 6.96355 0.933575 7.0782 0.94594C7.13251 0.94594 7.22906 0.970669 7.22303 0.865569C7.22303 0.797563 7.08424 0.865569 7.09027 0.723374H7.10234Z" fill="#B0D4C3" stroke="#B0D4C3" stroke-width="2" mask="url(#path-1-inside-1_37_1255)"/>
</g>
<defs>
<clipPath id="clip0_37_1255">
<rect width="25" height="20" fill="white"/>
</clipPath>
</defs>
</svg>
