<svg width="20" height="20" viewBox="0 0 20 20" fill="none" xmlns="http://www.w3.org/2000/svg">
<path d="M17.5 5V2.92099C17.5 2.43497 16.9258 2.17709 16.5625 2.49999C16.0278 2.97524 15.2222 2.97524 14.6875 2.49999C14.1528 2.02474 13.3472 2.02474 12.8125 2.49999C12.2778 2.97524 11.4722 2.97524 10.9375 2.49999C10.4028 2.02474 9.59716 2.02474 9.0625 2.49999C8.52784 2.97524 7.72216 2.97524 7.1875 2.49999C6.65284 2.02474 5.84716 2.02474 5.3125 2.49999C4.77784 2.97524 3.97216 2.97524 3.4375 2.49999C3.07424 2.17709 2.5 2.43497 2.5 2.92099V11.6667M17.5 8.33333V17.0791C17.5 17.5652 16.9258 17.823 16.5625 17.5001C16.0278 17.0249 15.2222 17.0249 14.6875 17.5001C14.1528 17.9754 13.3472 17.9754 12.8125 17.5001C12.2778 17.0249 11.4722 17.0249 10.9375 17.5001C10.4028 17.9754 9.59716 17.9754 9.0625 17.5001C8.52784 17.0249 7.72216 17.0249 7.1875 17.5001C6.65284 17.9754 5.84716 17.9754 5.3125 17.5001C4.77784 17.0249 3.97216 17.0249 3.4375 17.5001C3.07424 17.823 2.5 17.5652 2.5 17.0791V15" stroke="#5166EC" stroke-width="1.5" stroke-linecap="round"/>
<path d="M6.25 12.917H9.58333M13.75 12.917H12.0833" stroke="#5166EC" stroke-width="1.5" stroke-linecap="round"/>
<path d="M13.75 10H10.4167M6.25 10H7.91667" stroke="#5166EC" stroke-width="1.5" stroke-linecap="round"/>
<path d="M6.25 7.08301H13.75" stroke="#5166EC" stroke-width="1.5" stroke-linecap="round"/>
</svg>
