<svg width="24" height="24" viewBox="0 0 24 24" fill="none" xmlns="http://www.w3.org/2000/svg">
<path d="M12.1396 0.5C14.0223 0.600243 15.821 0.658799 17.2803 1.52832L17.5684 1.71387L17.5732 1.7168L17.6143 1.74414L17.6484 1.76855L17.6875 1.78613C19.7868 2.74657 21.4337 4.67905 22.1963 6.91602L22.2051 6.94043L22.2158 6.96484C22.8242 8.27892 23.3188 9.62716 23.458 11.0205L23.4805 11.2998C23.6176 13.619 23.0125 16.1215 21.8848 18.1104C21.3332 18.9629 20.6517 19.7043 19.8535 20.2783L19.8408 20.2871L19.8291 20.2959C18.8872 21.0628 17.9584 21.767 16.9102 22.2725L16.8887 22.2842C14.4632 23.6024 11.5186 23.7379 8.79492 23.2158C6.87718 22.7022 5.13954 21.5348 3.59961 20.1885L3.58203 20.1729L3.41699 20.0381C1.8537 18.7018 1.06184 16.5989 0.682617 14.4697L0.609375 14.0293L0.560547 13.6621C0.353341 11.8277 0.685452 9.94754 1.39062 8.17285C2.56934 5.66185 3.8126 3.08848 6.1084 1.86133L6.33496 1.74707L6.33789 1.74512C7.07136 1.38577 7.55732 1.06455 8.25293 0.84082L8.25195 0.839844C9.45703 0.476849 10.7469 0.513997 12.1396 0.5ZM18.3213 8.11621C18.064 7.99961 17.7893 7.9927 17.5264 8.05469L17.5137 8.05762L17.5 8.06152C17.1872 8.154 16.9518 8.35569 16.7773 8.53711L16.6221 8.70801L16.6191 8.71094C16.5708 8.7665 16.5152 8.82651 16.457 8.88672L16.2695 9.07422C16.201 9.1442 16.1388 9.20736 16.0703 9.27734L16.0586 9.28906L16.0479 9.30176C16.0348 9.31696 16.003 9.3517 15.9658 9.38965C15.9485 9.40736 15.9324 9.42345 15.9199 9.43555C15.9137 9.44154 15.9089 9.44579 15.9062 9.44824L15.9043 9.4502C15.7447 9.58608 15.6313 9.72038 15.5439 9.83398L15.5371 9.84277L15.5303 9.85254C15.5276 9.85635 15.5219 9.8644 15.5068 9.88184C15.4977 9.89248 15.492 9.89773 15.4795 9.91211C15.4751 9.91714 15.47 9.92267 15.4648 9.92871L15.29 10.084L15.2871 10.0869C15.248 10.1202 15.2031 10.1584 15.1572 10.1992L15.0205 10.3281C14.926 10.4185 14.8318 10.5233 14.7461 10.623C14.7057 10.6644 14.67 10.7058 14.6465 10.7334C14.6333 10.7488 14.6252 10.7583 14.6172 10.7676C14.6158 10.7691 14.6143 10.7703 14.6133 10.7715C14.3232 11.047 14.0639 11.3127 13.8164 11.5938C13.6056 11.823 13.3901 12.0359 13.1484 12.29L12.8389 12.6055L12.8213 12.625C12.6545 12.8143 12.4443 13.0166 12.2246 13.2139L12.2129 13.2246L12.2012 13.2363L12.1396 13.2998C12.0944 13.346 12.0447 13.3893 11.9971 13.4346C11.9667 13.4034 11.9374 13.3721 11.9072 13.3447L11.7783 13.2334C11.7633 13.2206 11.7487 13.2085 11.7373 13.1992C11.7247 13.189 11.716 13.1822 11.707 13.1748L11.6816 13.1523L11.5225 12.9648L11.5195 12.9619L11.4102 12.8291C11.3702 12.7822 11.3269 12.7341 11.2832 12.6895H11.2822C11.186 12.5846 11.075 12.478 10.9697 12.3848H10.9688C10.9018 12.324 10.8651 12.2904 10.8447 12.2695H10.8438C10.6364 12.0475 10.4404 11.8402 10.248 11.6533L10.0547 11.4707L10.0518 11.4688L9.75391 11.1689C9.70973 11.1206 9.66529 11.0735 9.62109 11.0283L9.47754 10.8877C9.42444 10.8337 9.37051 10.7802 9.31934 10.7295L9.15723 10.5664C9.07612 10.4836 8.99473 10.4029 8.91699 10.3252C8.84148 10.2498 8.76885 10.1775 8.69824 10.1055C8.62108 10.0135 8.54348 9.92289 8.46484 9.83496L8.21094 9.55859C8.08835 9.42641 7.97518 9.30485 7.84961 9.16309L7.8418 9.15332L7.83301 9.14453L7.58301 8.90332L7.57715 8.89844L7.42578 8.75977L7.3252 8.65039L7.32031 8.64453L7.23242 8.54199C7.13613 8.43696 7.01553 8.32564 6.87402 8.2334C6.70806 8.12526 6.48934 8.0296 6.2334 8.02539L6.12109 8.0293H6.11719C5.87539 8.05282 5.65033 8.16025 5.48047 8.33398L5.42676 8.39258L5.25293 8.57715L4.91895 8.9248V8.92578C4.74244 9.11895 4.63672 9.37106 4.63672 9.64844V9.66992C4.64952 10.1124 4.91602 10.4693 5.25293 10.7588V10.7598C5.32127 10.8196 5.3805 10.8902 5.49512 11.0156L5.50098 11.0215L5.50684 11.0283C5.52642 11.0483 5.54619 11.0711 5.57812 11.1074C5.60747 11.1408 5.64646 11.1855 5.69141 11.2314L5.69727 11.2373L5.7041 11.2432C5.75902 11.2955 5.81554 11.3479 5.86816 11.3965L6.01953 11.5381L6.02051 11.5391C6.11576 11.6294 6.21838 11.7268 6.33398 11.8379L6.3418 11.8457L6.35059 11.8535L6.39844 11.8955C6.50624 11.9924 6.61242 12.0908 6.71484 12.1914L7.0127 12.5029L7.02148 12.5117L7.0293 12.5205L7.3125 12.8086V12.8096C7.55632 13.0662 7.77343 13.2805 7.97852 13.5039V13.5029C8.2359 13.7871 8.48627 14.0449 8.76367 14.3076H8.76465C8.79917 14.3429 8.84407 14.3928 8.8916 14.4482V14.4492C8.9393 14.5054 8.9889 14.562 9.04004 14.6172L9.19727 14.7764L9.2002 14.7793L9.45605 15.0039L9.45996 15.0068C9.53664 15.0709 9.58958 15.1169 9.62988 15.1572C9.68426 15.2211 9.68345 15.2153 9.7002 15.2393L9.70703 15.248L9.71387 15.2578C9.79599 15.3645 9.89972 15.4851 10.0342 15.6094V15.6104L10.2461 15.8281L10.4316 16.0166C10.5688 16.1567 10.6853 16.2695 10.7822 16.3809V16.3799C10.9685 16.5982 11.243 16.9082 11.6846 17.0371L11.7041 17.043L11.7246 17.0469L11.9033 17.0811L11.9619 17.0967L12.0225 17.0986C12.4317 17.1106 12.7744 16.8922 13.042 16.6064L13.1523 16.4805L13.1562 16.4756C13.1852 16.4392 13.217 16.4057 13.2568 16.3672L13.4082 16.2275L13.415 16.2217C13.4963 16.1456 13.5798 16.068 13.6846 15.9609L13.6992 15.9453L13.7129 15.9287C13.8192 15.7998 13.901 15.7206 14.041 15.5615C14.2047 15.3874 14.3691 15.2047 14.5156 15.0342L14.9795 14.5674L15.3057 14.2412L15.3115 14.2363L15.3164 14.2305L15.584 13.957L15.5957 13.9453C15.6919 13.8405 15.7886 13.7405 15.8818 13.6572L15.8828 13.6582L15.8906 13.6504C16.132 13.4256 16.3907 13.1609 16.6543 12.8711C16.6892 12.8354 16.7397 12.7896 16.7949 12.7402L16.8057 12.7295C16.8444 12.6928 16.8963 12.645 16.9512 12.5928L17.1143 12.4287L17.1162 12.4258C17.1931 12.3394 17.2679 12.2463 17.335 12.1641L17.3359 12.165L17.3389 12.1611L17.498 11.9736C17.5004 11.9713 17.5074 11.9652 17.5244 11.9512C17.5333 11.9438 17.5412 11.9369 17.5537 11.9268L17.5957 11.8926C17.6681 11.8309 17.7756 11.7425 17.8662 11.6396L17.8652 11.6387L18.1084 11.3857L18.4131 11.0664L18.418 11.0615L18.6357 10.8457L18.6377 10.8447C18.7748 10.7144 18.9624 10.5395 19.1045 10.3418C19.2509 10.138 19.3803 9.86712 19.3613 9.5332H19.3623C19.3621 9.52844 19.3615 9.52328 19.3613 9.51855C19.3612 9.51694 19.3614 9.51529 19.3613 9.51367H19.3604C19.335 8.99155 19.0264 8.70138 18.8311 8.56348C18.7033 8.37625 18.5384 8.21462 18.3213 8.11621Z" fill="#5166EC" stroke="#5166EC"/>
</svg>
