<svg width="21" height="20" viewBox="0 0 21 20" fill="none" xmlns="http://www.w3.org/2000/svg">
<path d="M10.5002 5L10.5002 6.66667M10.5002 6.66667L10.5002 8.33333M10.5002 6.66667H8.83348M10.5002 6.66667L12.1668 6.66667" stroke="#ABAAA6" stroke-width="1.5" stroke-linecap="round"/>
<path d="M7.1665 11.6667H7.99984M13.8332 11.6667H10.4998" stroke="#ABAAA6" stroke-width="1.5" stroke-linecap="round"/>
<path d="M8 15L13 15" stroke="#ABAAA6" stroke-width="1.5" stroke-linecap="round"/>
<path d="M3 11.6667V8.33342C3 5.19072 3 3.61937 3.97631 2.64306C4.95262 1.66675 6.52397 1.66675 9.66667 1.66675H11.3333C14.476 1.66675 16.0474 1.66675 17.0237 2.64306C17.568 3.18738 17.8089 3.91665 17.9154 5.00008M18 8.33342V11.6667C18 14.8094 18 16.3808 17.0237 17.3571C16.0474 18.3334 14.476 18.3334 11.3333 18.3334H9.66667C6.52397 18.3334 4.95262 18.3334 3.97631 17.3571C3.43199 16.8128 3.19114 16.0835 3.08458 15.0001" stroke="#ABAAA6" stroke-width="1.5" stroke-linecap="round"/>
</svg>
