<svg width="32" height="33" viewBox="0 0 32 33" fill="none" xmlns="http://www.w3.org/2000/svg">
<path d="M9.30859 3.00977C11.7325 1.53483 14.6027 1.16361 17.4961 1.32715L17.541 1.33008L17.5869 1.32715C19.1188 1.2389 20.62 1.65183 22.0977 2.30859L22.7295 2.60449L22.7363 2.60742C23.9305 3.17851 24.9122 3.81553 25.7852 4.6748L25.8457 4.73438L25.918 4.78027C26.8476 5.36661 27.761 6.2149 28.5449 7.06836C28.6694 7.23103 28.7788 7.44441 28.9189 7.73145V7.73047C29.0923 8.12094 29.3253 8.45113 29.5039 8.70508C29.6966 8.9791 29.8267 9.17095 29.9111 9.36719C30.3696 10.8879 30.8738 12.5602 31.0361 14.0645L31.04 14.0977C31.1353 14.7263 31.2253 14.9708 31.2041 15.3477L31.2002 15.3604L31.1895 15.4062C31.0604 15.9522 31.0606 16.4288 31.0664 16.8379C31.0722 17.2442 31.0809 17.5754 31.0254 17.96C30.5406 19.8348 30.1314 21.6606 29.1777 23.1221C28.8641 23.5467 28.6567 23.9956 28.4883 24.4033C28.3071 24.8422 28.1877 25.1792 28.0166 25.5391C27.5294 26.3305 26.9503 27.0011 26.3076 27.8193C25.7904 28.3898 25.2422 28.8774 24.6484 29.4199C24.5134 29.5048 24.3552 29.5775 24.1377 29.6709C23.9741 29.7411 23.7648 29.8287 23.5537 29.9434L23.3438 30.0674C22.8811 30.3656 22.5377 30.4878 21.9307 30.8096L21.9033 30.8242L21.877 30.8418C21.1245 31.3202 20.2713 31.5789 19.4297 31.5332L19.3936 31.5312L19.3564 31.5322C18.7239 31.5561 18.0421 31.6367 17.4951 31.6768C16.9121 31.7195 16.3741 31.729 15.8359 31.6445L15.7363 31.6289L15.6367 31.6387C15.0574 31.6952 14.4764 31.644 13.8398 31.5625C13.3808 31.5038 12.8695 31.4253 12.3467 31.3789L11.8213 31.3447H11.8027C11.171 31.3374 10.5401 31.124 9.86914 30.7822C9.18683 30.4346 8.58244 30.0242 7.87207 29.6016C7.5673 29.3707 7.23602 29.2258 6.98828 29.1191C6.72044 29.0038 6.53565 28.9242 6.37402 28.8203C6.17643 28.644 5.99254 28.4508 5.78125 28.2266C5.581 28.0141 5.35229 27.7751 5.09375 27.5479C4.38112 26.7174 3.75028 25.7576 3.13867 24.791C3.04867 24.6412 2.99325 24.4537 2.92578 24.1533C2.86597 23.887 2.78884 23.4799 2.62012 23.1035L2.60449 23.0693L2.58594 23.0371L2.3418 22.5986C1.78668 21.5786 1.34282 20.5837 1.23145 19.5361L1.22949 19.5195L1.22754 19.502L1.18066 19.2393C1.12888 18.9793 1.06337 18.73 1.00586 18.5107C0.94504 18.2788 0.89364 18.0788 0.857422 17.8936L0.826172 17.7129L0.822266 17.6855L0.803711 17.5518C0.789829 17.414 0.789141 17.2642 0.796875 17.0908C0.802066 16.9745 0.810235 16.8573 0.819336 16.7246C0.828179 16.5957 0.83769 16.4533 0.842773 16.3076L0.841797 16.3066C0.860246 15.9229 0.847648 15.5163 0.848633 15.2178C0.849709 14.8923 0.865282 14.6224 0.921875 14.3691C1.39259 12.6023 1.72526 10.9395 2.34668 9.37793C2.41846 9.21044 2.53796 9.03795 2.72461 8.78906C2.8915 8.56653 3.12491 8.26675 3.30273 7.92676C3.46659 7.63074 3.58336 7.41895 3.72266 7.24707C4.53897 6.39638 5.39285 5.6347 6.33789 5.04395L6.39648 5.00684L6.44824 4.95996C7.33204 4.16271 8.13678 3.56789 9.23535 3.04883L9.27246 3.03125L9.30859 3.00977ZM17.2275 5.74805C16.3723 5.43462 15.3373 5.40494 14.4746 5.87598L14.4648 5.88184L14.4541 5.8877C12.7244 6.90211 12.3848 8.76124 12.958 10.1846C13.3425 11.139 14.1559 11.934 15.2275 12.1826C14.8079 12.2613 14.2834 12.4516 13.9355 12.9395L13.9102 12.9756L13.8887 13.0146C13.5235 13.6706 13.4822 14.3782 13.4932 14.9619C13.4986 15.2508 13.519 15.5586 13.5312 15.8105C13.5442 16.0779 13.5491 16.311 13.5342 16.5244V16.5381L13.5332 16.5518C13.4959 17.5929 13.5056 18.6417 13.5205 19.6748C13.5354 20.7125 13.5554 21.7303 13.542 22.7393C13.5114 23.4542 13.45 24.1726 13.4668 25L13.4785 25.3643V25.3652C13.4884 25.567 13.5098 25.8403 13.5762 26.1104C13.6385 26.364 13.7642 26.7143 14.0527 26.9844V26.9854C14.0546 26.9871 14.0568 26.9885 14.0586 26.9902C14.0605 26.992 14.0625 26.9943 14.0645 26.9961V26.9951C14.4428 27.3481 14.922 27.454 15.2793 27.4951C15.6363 27.5362 16.0479 27.5263 16.3135 27.5303V27.5293C16.8272 27.5627 17.369 27.4398 17.8057 27.124C18.2558 26.7984 18.5588 26.2883 18.583 25.6562L18.5918 25.5811L18.5986 25.5264L18.5977 25.4717C18.5657 23.6186 18.5586 21.7656 18.5586 19.9102L18.5605 14.333C18.5778 13.9045 18.4908 13.5081 18.2881 13.166C18.0793 12.8138 17.7801 12.5711 17.4658 12.4111C17.2346 12.2934 16.9872 12.2152 16.7383 12.168C16.8261 12.1476 16.9153 12.1261 17.0049 12.0986L17.0176 12.0947L17.0293 12.0908L17.1113 12.0625L17.1357 12.0537L17.1602 12.0439C17.9537 11.7127 18.6045 11.0461 18.9932 10.2861C19.383 9.52377 19.5532 8.5783 19.251 7.67578L19.2471 7.66504L19.2441 7.6543L19.1738 7.48145C18.7965 6.63109 18.0305 6.04238 17.2275 5.74805Z" fill="#5166EC" stroke="#5166EC" stroke-width="1.58333"/>
</svg>
