<svg width="36" height="35" viewBox="0 0 36 35" fill="none" xmlns="http://www.w3.org/2000/svg">
<path d="M2.54747 26.802C3.42047 28.1162 4.50047 29.2695 5.79647 30.1724C7.21847 31.2899 8.66747 32.3627 10.3235 33.1405C14.1665 35.1699 18.7835 35.3576 22.9775 34.5709C26.0195 33.7842 28.7285 31.9962 31.0865 29.9936C33.9935 27.7497 35.2715 24.0575 35.8205 20.5709C36.2975 17.567 35.7665 14.4917 34.5965 11.6309C32.7965 7.90294 30.7715 3.74585 26.8205 1.89527C25.8035 1.41252 24.9575 0.876118 23.8415 0.536398C21.9065 -0.0357599 19.8275 0.0268199 17.7845 0C14.8325 0.14304 11.7005 0.223499 9.22547 1.89527L9.16247 1.93103C5.81447 3.42401 3.20447 6.40996 1.99847 9.84291C1.00847 11.9259 0.189468 14.1162 0.0274683 16.4317C-0.188532 19.963 0.756468 23.7535 2.54747 26.802ZM9.97247 17.4508C9.96347 17.0932 10.1795 16.7178 10.6025 16.3691C10.7645 16.235 10.8995 16.083 11.0525 15.9132C11.1605 15.7969 11.2685 15.6807 11.4125 15.5377C11.6015 15.3678 11.7905 15.189 11.9885 15.0102C12.2495 14.7688 12.5195 14.5275 12.7625 14.304C13.0145 14.0626 13.2395 13.8301 13.4735 13.5888C13.6355 13.4189 13.7975 13.258 13.9595 13.0971C14.0855 12.963 14.2205 12.8289 14.3555 12.6948C14.5175 12.5338 14.6885 12.3729 14.8325 12.212C15.1475 11.8633 15.5255 11.4879 15.9485 11.1034C16.0295 11.023 16.1015 10.9425 16.1825 10.8531C16.3175 10.7011 16.4525 10.5492 16.5875 10.433C16.7045 10.3257 16.8215 10.2273 16.9475 10.1201C17.0555 10.0307 17.1725 9.94125 17.2715 9.83397C17.3345 9.77139 17.3885 9.69987 17.4425 9.63729C17.5415 9.52107 17.6405 9.40485 17.7395 9.30651C17.8925 9.16347 18.0095 9.04725 18.1355 8.92209C18.2615 8.79693 18.3965 8.66284 18.5855 8.48404C18.7025 8.37676 18.8285 8.24266 18.9455 8.1175C19.3505 7.67944 19.7735 7.23244 20.3135 7.2682C20.8895 7.28608 21.1415 7.69732 21.2405 7.85824C21.7175 8.15326 21.9065 8.54662 21.7805 9.08301C21.6725 9.47637 21.3755 9.76245 21.0515 10.0396C20.8625 10.2095 20.6645 10.4151 20.4845 10.5939C20.3855 10.6922 20.2955 10.7905 20.1875 10.8889C20.1155 10.9604 19.9355 11.1392 19.8905 11.1839C19.7375 11.3627 19.5755 11.4968 19.4315 11.613C19.3685 11.6667 19.2965 11.7292 19.2425 11.7739C19.1345 11.8723 19.0445 11.9885 18.9545 12.0958C18.8555 12.2209 18.7475 12.3461 18.6485 12.4444C18.5225 12.5785 18.3695 12.7216 18.2165 12.8557C18.1265 12.9361 18.0455 13.0077 17.9915 13.0613C17.5865 13.4904 17.2085 13.8659 16.8125 14.2324C16.4705 14.5543 16.1195 14.9029 15.7775 15.2427L15.3095 15.6986C14.9945 15.9757 14.6795 16.3155 14.3825 16.6462L14.2925 16.7446C14.1485 16.8876 14.0045 17.0396 13.8695 17.1916C13.7705 17.2988 13.6805 17.4061 13.5725 17.5134L13.6445 17.5849C13.7705 17.7101 13.8875 17.8263 14.0405 17.9693C14.1485 18.0677 14.2475 18.1839 14.3465 18.3001C14.4005 18.3627 14.4545 18.4342 14.5085 18.4968C14.6075 18.6041 14.7245 18.6935 14.8325 18.7829C14.9585 18.8812 15.0845 18.9885 15.1835 19.0868C15.3185 19.212 15.4625 19.364 15.5975 19.516C15.6695 19.6054 15.7505 19.6858 15.7955 19.7395C16.2455 20.1507 16.6145 20.5262 16.9385 20.8748C17.0825 21.0358 17.2535 21.1967 17.4155 21.3576C17.5505 21.4917 17.6855 21.6258 17.8025 21.742C17.9735 21.9119 18.1355 22.0817 18.2975 22.2427C18.5315 22.4751 18.7565 22.7165 18.9815 22.931C19.2515 23.1724 19.5215 23.4138 19.7825 23.6552C19.9805 23.834 20.1695 24.0128 20.3765 24.2005C20.4935 24.3167 20.6015 24.4329 20.7005 24.5492C20.8535 24.719 20.9975 24.871 21.1595 25.0051C21.4745 25.2644 21.8345 25.6756 21.7895 26.1405C21.7715 26.355 21.6635 26.5517 21.5015 26.6858C21.4025 26.7752 21.3035 26.8736 21.2045 26.9719C21.0425 27.1328 20.8715 27.2937 20.7095 27.4457C20.5655 27.5888 20.3585 27.6692 20.1515 27.6692C20.1515 27.6692 20.1425 27.6692 20.1335 27.6692C19.7825 27.6692 19.4315 27.4457 19.0625 27.0077C18.9365 26.8646 18.7925 26.7305 18.6305 26.5875C18.5315 26.4981 18.4415 26.4176 18.3335 26.3103C18.1805 26.1584 18.0365 25.9974 17.9015 25.8455C17.7665 25.6935 17.6225 25.5415 17.4605 25.3716L17.3975 25.3001C17.0915 24.9693 16.7855 24.6207 16.4345 24.3257L16.0025 23.8966C15.6605 23.5568 15.3005 23.2082 14.9765 22.8953C14.5625 22.5198 14.1845 22.1533 13.8155 21.742C13.7345 21.6616 13.6535 21.59 13.5635 21.5096C13.4105 21.3755 13.2575 21.2414 13.1405 21.1073C13.0325 20.9911 12.9335 20.8748 12.8255 20.7497C12.7355 20.6424 12.6455 20.5262 12.5465 20.4368C12.4745 20.3742 12.4115 20.3206 12.3395 20.258C12.1955 20.1418 12.0425 20.0077 11.8895 19.8378C11.8355 19.7842 11.6645 19.6054 11.5655 19.516C11.4845 19.4355 11.3855 19.3372 11.2865 19.2388C11.1065 19.0511 10.9085 18.8544 10.7195 18.6845C10.3955 18.3985 10.0985 18.1124 9.98147 17.6922C9.95447 17.5939 9.94547 17.4955 9.95447 17.3972L9.97247 17.4508Z" fill="#5166EC"/>
</svg>
