<svg width="21" height="20" viewBox="0 0 21 20" fill="none" xmlns="http://www.w3.org/2000/svg">
<path d="M2.1665 9.99992C2.1665 6.85722 2.1665 5.28587 3.14281 4.30956C4.11913 3.33325 5.69047 3.33325 8.83317 3.33325H12.1665C15.3092 3.33325 16.8805 3.33325 17.8569 4.30956C18.8332 5.28587 18.8332 6.85722 18.8332 9.99992C18.8332 13.1426 18.8332 14.714 17.8569 15.6903C16.8805 16.6666 15.3092 16.6666 12.1665 16.6666H8.83317C5.69047 16.6666 4.11913 16.6666 3.14281 15.6903C2.1665 14.714 2.1665 13.1426 2.1665 9.99992Z" stroke="#5166EC" stroke-width="1.5"/>
<path opacity="0.5" d="M8.83333 13.75H5.5" stroke="#5166EC" stroke-width="1.5" stroke-linecap="round"/>
<path opacity="0.5" d="M7.16667 11.25H5.5" stroke="#5166EC" stroke-width="1.5" stroke-linecap="round"/>
<path opacity="0.5" d="M2.1665 8.33325L18.8332 8.33325" stroke="#5166EC" stroke-width="1.5" stroke-linecap="round"/>
<path opacity="0.5" d="M12.1665 12.4999C12.1665 11.7142 12.1665 11.3214 12.4106 11.0773C12.6547 10.8333 13.0475 10.8333 13.8332 10.8333C14.6188 10.8333 15.0117 10.8333 15.2558 11.0773C15.4998 11.3214 15.4998 11.7142 15.4998 12.4999C15.4998 13.2856 15.4998 13.6784 15.2558 13.9225C15.0117 14.1666 14.6188 14.1666 13.8332 14.1666C13.0475 14.1666 12.6547 14.1666 12.4106 13.9225C12.1665 13.6784 12.1665 13.2856 12.1665 12.4999Z" stroke="#5166EC" stroke-width="1.5"/>
</svg>
