<svg width="28" height="29" viewBox="0 0 28 29" fill="none" xmlns="http://www.w3.org/2000/svg">
<path d="M26.0278 6.81668C25.3476 5.73374 24.5075 4.77771 23.4993 4.02473C22.3951 3.10254 21.2668 2.20573 19.9786 1.56274C16.986 -0.120893 13.3933 -0.273179 10.1287 0.378275C7.76026 1.02973 5.65585 2.51031 3.8155 4.16856C1.55106 6.0214 0.558868 9.08408 0.134786 11.9691C-0.233285 14.4565 0.174796 17.0031 1.08697 19.372C2.48724 22.4601 4.06354 25.9035 7.13613 27.4348C7.92828 27.8325 8.58442 28.2724 9.44858 28.5601C10.9609 29.0338 12.5772 28.9746 14.1695 29C16.4659 28.8816 18.8984 28.8139 20.8268 27.4264L20.8748 27.3925C23.4833 26.1573 25.5077 23.6868 26.4438 20.8441C27.212 19.1266 27.8521 17.3077 27.9721 15.3956C28.1562 12.4767 27.42 9.32944 26.0278 6.81668ZM20.2507 14.5495C20.2587 14.8457 20.0906 15.1502 19.7546 15.4463C19.6265 15.5563 19.5225 15.6832 19.4025 15.8271C19.3225 15.9201 19.2345 16.0217 19.1224 16.1401C18.9784 16.2755 18.8264 16.4278 18.6743 16.5716C18.4743 16.7746 18.2663 16.9777 18.0742 17.1554C17.8822 17.3584 17.6982 17.553 17.5221 17.7476C17.3941 17.883 17.2661 18.0268 17.1461 18.1537C17.05 18.2637 16.938 18.3737 16.834 18.4837C16.706 18.619 16.5779 18.7459 16.4659 18.8813C16.2179 19.1689 15.9298 19.482 15.5938 19.8035C15.5377 19.8712 15.4737 19.9388 15.4177 20.0065C15.3137 20.1334 15.2017 20.2603 15.1057 20.3534C15.0177 20.4465 14.9216 20.5226 14.8256 20.6072C14.7376 20.6834 14.6496 20.7595 14.5696 20.8441C14.5215 20.8949 14.4815 20.9541 14.4415 21.0049C14.3615 21.1064 14.2895 21.1995 14.2095 21.2756C14.0895 21.394 13.9934 21.4956 13.8974 21.5971C13.7934 21.7071 13.6894 21.8171 13.5454 21.9609C13.4493 22.054 13.3613 22.1639 13.2653 22.2655C12.9452 22.6293 12.6252 23.0015 12.2011 22.9677C11.753 22.9508 11.561 22.6124 11.481 22.477L11.473 22.477C11.0969 22.2401 10.9529 21.9101 11.0489 21.4617C11.1369 21.1402 11.3689 20.9033 11.617 20.6664C11.761 20.5311 11.921 20.3619 12.0571 20.2096C12.1371 20.125 12.2091 20.0488 12.2891 19.9642C12.3451 19.905 12.4812 19.7612 12.5212 19.7189C12.6412 19.575 12.7692 19.4651 12.8732 19.3635C12.9292 19.3212 12.9773 19.2705 13.0253 19.2282C13.1053 19.1436 13.1773 19.0505 13.2493 18.9574C13.3293 18.8559 13.4093 18.7544 13.4893 18.6698C13.5854 18.5598 13.7054 18.4413 13.8254 18.3314C13.8894 18.2637 13.9614 18.2045 14.0015 18.1622C14.3135 17.8068 14.6096 17.4938 14.9216 17.1977C15.1857 16.9354 15.4577 16.6393 15.7298 16.3601L16.0898 15.9794C16.3379 15.7509 16.5779 15.4717 16.81 15.1925L16.882 15.1164C16.994 14.9979 17.106 14.871 17.2101 14.7441C17.2821 14.6595 17.3621 14.5665 17.4421 14.4819C17.4261 14.4649 17.4021 14.4396 17.3861 14.4226C17.2901 14.3211 17.1941 14.2196 17.074 14.1011C16.994 14.025 16.914 13.9235 16.842 13.8304C16.802 13.7796 16.762 13.7204 16.714 13.6697C16.6339 13.585 16.5459 13.5089 16.4579 13.4328C16.3619 13.3482 16.2659 13.2635 16.1859 13.1789C16.0818 13.069 15.9698 12.9505 15.8658 12.8236C15.8098 12.7559 15.7458 12.6798 15.7058 12.6375C15.3537 12.2991 15.0657 11.986 14.8176 11.6899C14.7056 11.5545 14.5776 11.4192 14.4495 11.2923C14.3455 11.1823 14.2415 11.0723 14.1455 10.9708C14.0095 10.8269 13.8894 10.6916 13.7614 10.5562C13.5854 10.3616 13.4013 10.167 13.2253 9.98089C13.0173 9.7863 12.8092 9.58325 12.6012 9.3802C12.4492 9.23637 12.3051 9.08408 12.1371 8.92333C12.0491 8.83027 11.9611 8.72875 11.8811 8.63568C11.761 8.49185 11.649 8.36494 11.529 8.25496C11.2889 8.03499 11.0009 7.69657 11.0329 7.30739C11.0489 7.12972 11.1289 6.96897 11.2569 6.85898C11.3289 6.78284 11.4089 6.70669 11.489 6.62209C11.617 6.48672 11.745 6.35136 11.873 6.22445C11.9851 6.106 12.1451 6.03832 12.3131 6.03832L12.3211 6.03832C12.5932 6.04678 12.8652 6.22445 13.1533 6.58825C13.2493 6.70669 13.3693 6.81668 13.4893 6.93513C13.5614 7.00281 13.6414 7.07895 13.7214 7.16356C13.8414 7.29047 13.9534 7.41737 14.0574 7.55274C14.1615 7.67965 14.2735 7.80656 14.4015 7.94192L14.4495 8.00115C14.6816 8.28034 14.9296 8.55953 15.1937 8.81335L15.5298 9.16869C15.8018 9.44788 16.0739 9.744 16.3299 9.99781C16.65 10.3024 16.946 10.6154 17.2341 10.9538C17.2981 11.0215 17.3621 11.0808 17.4261 11.14C17.5461 11.25 17.6662 11.3684 17.7542 11.4699C17.8422 11.563 17.9142 11.6645 17.9942 11.766C18.0662 11.8591 18.1382 11.9522 18.2102 12.0283C18.2663 12.0791 18.3143 12.1298 18.3703 12.1722C18.4823 12.2652 18.6023 12.3752 18.7224 12.519C18.7624 12.5613 18.8984 12.7136 18.9704 12.7813C19.0344 12.849 19.1064 12.9251 19.1864 13.0097C19.3305 13.162 19.4825 13.3312 19.6265 13.4666C19.8746 13.7035 20.1066 13.9404 20.2026 14.2873C20.2427 14.3888 20.2507 14.4734 20.2507 14.5495Z" fill="#5166EC"/>
</svg>
