<svg width="20" height="20" viewBox="0 0 20 20" fill="none" xmlns="http://www.w3.org/2000/svg">
<path d="M5.50781 0.818359C7.27873 0.329887 9.25477 0.362574 10.8262 1.20312L10.8398 1.20898L10.8701 1.22461C12.0072 1.88205 13.0465 2.62081 13.6807 3.66602V3.66699C14.1355 4.43784 14.4233 5.55169 14.5098 6.4668L14.5342 6.8457V6.85059C14.5919 8.1589 14.1775 9.46827 13.4766 10.6328L13.46 10.6602L13.4463 10.6904C13.3063 11.0106 13.1275 11.3225 12.9248 11.6338L12.6709 12.0234L13.04 12.3047C13.1302 12.3734 13.2197 12.4464 13.3223 12.5293C13.4194 12.6078 13.5263 12.6928 13.6377 12.7725V12.7734C13.753 12.858 13.8055 12.9728 13.9219 13.2568C14.0247 13.5077 14.1885 13.9109 14.6318 14.1553V14.1562C15.2274 14.4845 15.6038 14.9704 16.1016 15.5781C16.123 15.6104 16.1457 15.6479 16.1729 15.6963C16.1999 15.7446 16.2386 15.8153 16.2773 15.8799C16.3389 15.9824 16.4208 16.1049 16.54 16.2188L16.6729 16.3281L16.6748 16.3301C17.4167 16.8598 17.9606 17.5621 18.6143 18.3545L18.627 18.3701L18.6406 18.3848C18.8015 18.5504 19.0237 18.6479 19.123 18.6963C19.1914 18.7296 19.2394 18.7551 19.2744 18.7764L19.3477 18.832L19.3506 18.8359C19.4139 18.9014 19.4533 18.9695 19.4746 19.0381L19.4902 19.1074L19.4941 19.1436V19.1514L19.4961 19.1602C19.5103 19.2672 19.4864 19.3305 19.4629 19.3682C19.437 19.4095 19.3923 19.4492 19.3252 19.4746C19.1863 19.5271 18.9913 19.5044 18.8428 19.3564L18.8271 19.3408L18.8105 19.3271L18.7705 19.2861C18.7306 19.2381 18.6883 19.1642 18.6152 19.0283H18.6143C18.4656 18.7419 18.2434 18.5495 18.0654 18.4082C17.8686 18.2519 17.7374 18.1615 17.6113 18.0312C17.5737 17.989 17.5364 17.9446 17.4932 17.8916C17.4515 17.8405 17.4017 17.7794 17.3486 17.7197C17.2432 17.6011 17.106 17.4688 16.9189 17.3633H16.9199C16.8212 17.3035 16.7294 17.2111 16.6172 17.0703C16.5272 16.9575 16.3695 16.736 16.2305 16.582L16.1904 16.5381L16.1416 16.5039L15.6982 16.21C15.5753 16.125 15.4738 16.0443 15.3848 15.9404L15.3555 15.9062L15.3203 15.877L15.1416 15.7471C15.0883 15.7106 15.0547 15.6881 15.0273 15.666L15.0195 15.6592L15.0107 15.6523L14.9561 15.5996C14.9351 15.5756 14.9103 15.5442 14.8799 15.501C14.8353 15.4376 14.739 15.2868 14.6318 15.1758H14.6309C14.5393 15.0805 14.4383 15.0064 14.375 14.96C14.2999 14.9048 14.2638 14.877 14.2354 14.8486L14.2227 14.8359L14.209 14.8242L14.168 14.7734C14.1502 14.7456 14.1268 14.7038 14.0938 14.6387C14.0456 14.5438 13.9466 14.3291 13.7764 14.1699L13.7627 14.1572L13.749 14.1455L13.5029 13.9658C13.4208 13.91 13.3405 13.8584 13.2676 13.8115C13.1123 13.7117 12.9871 13.6296 12.8818 13.543L12.8604 13.5264L12.8379 13.5107L12.7158 13.4229C12.596 13.3287 12.484 13.2168 12.3721 13.0898L12.0645 12.7412L11.6943 13.0225C11.3768 13.2637 11.0215 13.4458 10.6328 13.6338L10.6211 13.6387L10.6094 13.6455C10.193 13.8745 9.78109 14.0489 9.37305 14.1045L9.19824 14.1211L9.18848 14.1221C7.70508 14.2248 6.08986 14.2734 4.7666 13.8076C3.77704 13.3014 2.91728 12.8852 2.31348 12.1455L2.19434 11.9912L2.18457 11.9766L2.17285 11.9629L2.02441 11.7734C1.69207 11.3216 1.45917 10.801 1.24316 10.2285L1.23145 10.1973L1.21582 10.1689L1.08301 9.9043C0.790738 9.28539 0.611631 8.62618 0.516602 7.92871C0.402292 6.15644 0.878274 4.27048 2.05469 2.99219C3.12494 2.02175 4.20231 1.27195 5.50781 0.818359ZM7.85547 1.08496H7.85156C7.18078 1.09458 6.4086 1.08024 5.66016 1.21875L5.35742 1.28418C4.76553 1.41218 4.32669 1.75647 3.98047 2.00293C3.29666 2.41826 2.59972 2.97748 2.06348 3.54199L2.04492 3.56152L2.02832 3.58301C1.40902 4.39299 1.22096 5.4575 1.11719 6.33008C0.955831 7.00056 1.03382 7.66638 1.14258 8.26562L1.14746 8.28906L1.15332 8.31152C1.20115 8.48236 1.27517 8.63568 1.33008 8.75C1.35999 8.81227 1.38525 8.86568 1.40723 8.91504L1.46387 9.05762L1.46484 9.06055C1.4949 9.15043 1.50834 9.25438 1.53027 9.42383C1.54935 9.57117 1.57628 9.78531 1.65723 9.98926L1.67188 10.0254L1.69141 10.0576C2.02193 10.6207 2.36816 11.1586 2.64844 11.6895V11.6885C3.01637 12.4606 3.82885 12.7831 4.3252 12.9824C4.71099 13.223 5.14122 13.4397 5.57715 13.5791L5.77051 13.6357C6.06727 13.7146 6.35726 13.7066 6.58789 13.6934C6.84203 13.6787 7.0132 13.6602 7.18945 13.6738L7.20605 13.6748H7.22266C7.46036 13.6774 7.71032 13.7029 7.99023 13.7305C8.26196 13.7573 8.56167 13.7859 8.8623 13.7891L8.88965 13.79L8.91797 13.7871C9.44817 13.7335 9.94071 13.5423 10.3877 13.292C10.5191 13.2285 10.6557 13.174 10.8125 13.1084C10.9636 13.0452 11.1322 12.9733 11.2959 12.8857C11.6232 12.7106 11.956 12.458 12.1787 12.0312C12.3415 11.7912 12.4872 11.5444 12.6162 11.334C12.7203 11.1643 12.82 11.0097 12.9277 10.8662L13.0381 10.7266L13.0459 10.7168C13.2573 10.4522 13.3357 10.1489 13.3857 9.92871C13.4284 9.74113 13.453 9.60848 13.4912 9.49121L13.5352 9.37695C13.9658 8.61345 14.1598 7.69776 14.0537 6.82812H14.0547C13.9963 5.82704 13.8536 4.76346 13.3223 3.7998L13.3027 3.7627L13.2764 3.73047L13.1299 3.55176C12.3771 2.66846 11.3821 1.96841 10.4346 1.4248L10.3994 1.4043L10.3604 1.39062L10.3145 1.37305C9.68773 1.13885 9.02837 1.0902 8.42969 1.08301L7.85547 1.08496Z" stroke="#5166EC"/>
<path d="M4.43848 4.49121C5.576 3.41731 7.46185 2.94655 9.42285 3.56445L9.43359 3.56934L9.43945 3.57227C10.9411 4.19214 11.6502 5.3488 11.7705 6.62988C11.8929 7.93332 11.4038 9.39009 10.4355 10.5303C10.0047 11.0181 9.43198 11.3117 8.77539 11.4316L8.48926 11.4727H8.48438C6.47438 11.7026 4.523 11.0767 3.875 9.3125L3.86621 9.28809L3.85449 9.26465L3.68555 8.88867C2.92153 7.02955 3.39251 5.47875 4.43848 4.49121Z" stroke="#5166EC"/>
</svg>
